<?xml version="1.0" encoding="utf-8"?>
<!-- Generator: Adobe Illustrator 25.1.0, SVG Export Plug-In . SVG Version: 6.00 Build 0)  -->
<svg version="1.1" id="Capa_1" xmlns="http://www.w3.org/2000/svg" xmlns:xlink="http://www.w3.org/1999/xlink" x="0px" y="0px"
	 viewBox="0 0 733.3 90.7" style="enable-background:new 0 0 733.3 90.7;" xml:space="preserve">
<style type="text/css">
	.st0{fill:#FFFFFF;}
	.st1{fill:#E22B23;}
	.st2{font-family:'BrushScriptMT';}
	.st3{font-size:90px;}
</style>
<g id="Capa_3">
</g>
<g id="Capa_4">
</g>
<g id="svg2" xmlns:cc="http://creativecommons.org/ns#" xmlns:dc="http://purl.org/dc/elements/1.1/" xmlns:rdf="http://www.w3.org/1999/02/22-rdf-syntax-ns#" xmlns:svg="http://www.w3.org/2000/svg">
	<g id="g10" transform="matrix(1.3333333,0,0,-1.3333333,0,90.666667)">
		<g id="g12" transform="scale(0.1)">
			<path id="path14" class="st0" d="M1669.8,444.8V128.6h-105.4v316.2h-86.6v89.3h278.5v-89.3L1669.8,444.8"/>
			<path id="path16" class="st0" d="M2338.7,444.8h-125.3v-67.7h118.3v-89.3h-118.3v-69.9h125.3v-89.3H2108V534h230.7V444.8"/>
			<path id="path18" class="st0" d="M3054.3,210.4h23.1c26.5,0,45.5,3.4,57,10.2s17.2,17.7,17.2,32.8c0,15.1-5.7,26-17.2,32.8
				s-30.5,10.2-57,10.2h-23.1V210.4z M3054.3,374.9h19.4c33,0,49.5,13.1,49.5,39.3c0,26.2-16.5,39.3-49.5,39.3h-19.4V374.9z
				 M2948.9,534.1h157c37.3,0,65.6-9,84.9-26.9c19.4-17.9,29-43.7,29-77.4c0-20.4-3.7-37.4-11-50.8c-7.4-13.4-18.6-24.8-33.6-34.1
				c15.1-2.9,27.9-7.3,38.4-13.2c10.6-5.9,19.2-13.2,25.8-21.8c6.6-8.6,11.4-18.3,14.2-29c2.9-10.8,4.3-22.2,4.3-34.4
				c0-19-3.3-35.8-9.9-50.5c-6.6-14.7-16-27.1-28-37.1s-26.6-17.6-43.8-22.6s-36.6-7.5-58.1-7.5h-169.4v405.3"/>
			<path id="path20" class="st0" d="M3409.2,352.9h19.9c20.8,0,36.7,4.3,47.9,12.9c11.1,8.6,16.7,21,16.7,37.1s-5.6,28.5-16.7,37.1
				c-11.1,8.6-27.1,12.9-47.9,12.9h-19.9V352.9z M3640.9,128.6h-131.2l-100.5,155.9V128.6h-105.4V534h164c22.6,0,42.3-3.3,59.1-9.9
				c16.9-6.6,30.7-15.7,41.7-27.2c10.9-11.5,19.2-24.7,24.7-39.8c5.6-15.1,8.3-31.2,8.3-48.4c0-30.8-7.4-55.8-22.3-75
				c-14.9-19.2-36.8-32.2-65.9-39L3640.9,128.6"/>
			<path id="path22" class="st0" d="M3771.4,534.1V128.6H3666V534L3771.4,534.1"/>
			<path id="path24" class="st0" d="M3945,217.9h24.2c18.3,0,34.6,2.9,48.9,8.6c14.3,5.7,26.4,13.6,36.3,23.7
				c9.8,10,17.4,22,22.6,35.8c5.2,13.8,7.8,28.9,7.8,45.4c0,16.1-2.7,31.2-8.1,45.2c-5.4,14-13,26-22.8,36
				c-9.9,10-22,17.9-36.3,23.7c-14.3,5.7-30.5,8.6-48.4,8.6H3945V217.9z M3839.6,534.1h155.9c27.6,0,53.5-5.6,77.7-16.7
				c24.2-11.1,45.3-25.9,63.4-44.4s32.3-40,42.7-64.5c10.4-24.6,15.6-50.3,15.6-77.2c0-26.5-5.1-52.1-15.3-76.6
				c-10.2-24.6-24.4-46.2-42.5-64.8s-39.3-33.5-63.4-44.6c-24.2-11.1-50.3-16.7-78.2-16.7h-155.9L3839.6,534.1"/>
			<path id="path26" class="st0" d="M4439.6,355.5h209.2c0-21.5-0.9-41-2.7-58.6c-1.8-17.6-5.4-33.9-10.8-48.9
				c-7.5-21.2-17.7-39.9-30.6-56.2s-28-29.9-45.4-40.9c-17.4-10.9-36.5-19.3-57.3-25c-20.8-5.7-42.7-8.6-65.6-8.6
				c-31.5,0-60.3,5.2-86.3,15.6c-26,10.4-48.3,25-66.9,43.8s-33.2,41.4-43.5,67.7c-10.4,26.3-15.6,55.5-15.6,87.4
				c0,31.5,5.1,60.5,15.3,86.8c10.2,26.3,24.7,48.8,43.6,67.5c18.8,18.6,41.5,33.1,68,43.5s56.1,15.6,88.7,15.6
				c42.3,0,79.4-9.1,111.3-27.4c31.9-18.3,57.2-46.6,75.8-85l-100-41.4c-9.3,22.2-21.4,38.2-36.3,47.8
				c-14.9,9.7-31.8,14.5-50.8,14.5c-15.8,0-30.1-3-43-8.9s-23.9-14.3-33.1-25.3c-9.1-10.9-16.3-24.1-21.5-39.5
				c-5.2-15.4-7.8-32.6-7.8-51.6c0-17.2,2.2-33.2,6.7-47.9c4.5-14.7,11.2-27.4,20.2-38.2c9-10.7,20.1-19.1,33.3-25
				c13.3-5.9,28.7-8.9,46.2-8.9c10.4,0,20.4,1.2,30.1,3.5s18.4,6.1,26.1,11.3s14.1,11.9,19.1,20.2c5,8.2,8.4,18.3,10.2,30.1h-86.6
				L4439.6,355.5"/>
			<path id="path28" class="st0" d="M4926.8,444.8h-125.3v-67.7h118.3v-89.3h-118.3v-69.9h125.3v-89.3h-230.7V534h230.7V444.8"/>
			<path id="path30" class="st1" d="M2796.3,534.6h-304.5c-28,0-50.8-22.7-50.8-50.8V179.3c0-28,22.7-50.8,50.8-50.8v209.4h304.5
				V128.5c28,0,50.8,22.7,50.8,50.8v304.5C2847.1,511.8,2824.4,534.6,2796.3,534.6z M2580.6,128.5h126.9v139.6h-126.9V128.5"/>
			<path id="path32" class="st0" d="M2041.4,337.9V128.5h-88.8v139.6h-126.9V128.5h-88.8v209.4H2041.4"/>
			<path id="path34" class="st0" d="M2796.3,337.9V128.5h-88.8v139.6h-126.9V128.5h-88.8v209.4H2796.3"/>
		</g>
	</g>
	<text transform="matrix(1 0 0 1 64.6161 66.8538)" class="st0 st2 st3">film</text>
	<g>
		<g>
			<path class="st0" d="M211.2,65c-1.4-1.8-2.8-3.6-4.2-5.4c-1.2-1.5-2.3-3.3-3.9-4.4c-3.7-2.6-6.9,0.8-9.6,3.2
				c-1.4,1.3-3,1.8-4.5,0.2c-1.3-1.4-1.6-3.4-2.6-5c-1-1.5-3-1.7-4.6-1.6c-1.7,0.1-3.2,0.6-4.2,2.1c-1,1.6,1.6,3.1,2.6,1.5
				c0.5-0.8,2.8-0.9,3.6-0.4c0.5,0.3,0.8,1.7,1.1,2.3c0.3,0.8,0.7,1.5,1.2,2.2c1.9,2.7,5.1,3.8,8.1,2c2.1-1.3,5.1-6.1,7.7-3.6
				c1.3,1.2,2.3,2.7,3.3,4.1c1.3,1.7,2.6,3.3,3.9,5C210.2,68.6,212.3,66.5,211.2,65L211.2,65z"/>
		</g>
	</g>
</g>
</svg>
